<?xml version="1.0" standalone="no"?>
<!DOCTYPE svg PUBLIC "-//W3C//DTD SVG 20010904//EN"
        "http://www.w3.org/TR/2001/REC-SVG-20010904/DTD/svg10.dtd">
<svg version="1.0" xmlns="http://www.w3.org/2000/svg"
     width="1280.000000pt" height="1280.000000pt" viewBox="0 0 1280.000000 1280.000000"
     preserveAspectRatio="xMidYMid meet">
    <g transform="translate(0.000000,1280.000000) scale(0.100000,-0.100000)"
       fill="#000000" stroke="none">
        <path d="M6150 11245 c-418 -57 -782 -234 -1084 -525 -759 -733 -785 -1937
-58 -2701 733 -771 1945 -802 2714 -70 648 616 786 1596 334 2365 -262 445
-699 769 -1201 892 -216 53 -494 68 -705 39z"/>
        <path d="M4770 6804 c-14 -2 -59 -9 -100 -15 -41 -5 -124 -23 -185 -39 -654
-172 -1166 -716 -1299 -1380 -34 -171 -36 -251 -36 -2042 l0 -1788 3250 0
3250 0 0 1788 c0 1791 -2 1871 -36 2042 -131 656 -638 1201 -1280 1376 -228
62 -94 57 -1894 60 -905 1 -1656 0 -1670 -2z"/>
    </g>
</svg>
